# xmcd
#
# Track frame offsets:
#	150
#	19096
#	28143
#	36632
#	46622
#	56583
#	67126
#	76887
#	91180
#
# Disc length: 1361 seconds
#
# Revision: 1
# Processed by: cddbd v1.5.2PL0 Copyright (c) Steve Scherf et al.
# Submitted via: audiograbber 1.83.01
#
DISCID=70054f09
DTITLE=Son Sound - Volume 2  1999
DYEAR=1900
DGENRE=Gospel
TTITLE0=The Royals - Whiter Than Snow
TTITLE1=Damascus Road - Celebrate
TTITLE2=The Reggie Sadler Family - He Will
TTITLE3=Arise - Look At The Reason
TTITLE4=Homeland - Heaven We Call It Home
TTITLE5=Sounds Of Glory - We Must Be Ready
TTITLE6=Praise 4 - Going In Style
TTITLE7=Sandy David - When The Lod Comes Again
TTITLE8=Lowell Locklear - Till The Last Leaf Shall Fall
EXTD=
EXTT0=
EXTT1=
EXTT2=
EXTT3=
EXTT4=
EXTT5=
EXTT6=
EXTT7=
EXTT8=
PLAYORDER=
